HIERARCHY
ROOT Hips
{
	OFFSET -40.927921 87.584816 43.994537
	CHANNELS 6 Xposition Yposition Zposition Zrotation Yrotation Xrotation 
	JOINT Spine
	{
		OFFSET 0.000000 8.814246 -2.080107
		CHANNELS 3 Zrotation Yrotation Xrotation
		JOINT Spine1
		{
			OFFSET -0.000000 8.844141 -0.000000
			CHANNELS 3 Zrotation Yrotation Xrotation
			JOINT Spine2
			{
				OFFSET -0.000000 11.682268 0.000000
				CHANNELS 3 Zrotation Yrotation Xrotation
				JOINT Spine3
				{
					OFFSET 0.000000 11.746700 0.000000
					CHANNELS 3 Zrotation Yrotation Xrotation
					JOINT Neck
					{
						OFFSET 0.000000 17.658264 0.000000
						CHANNELS 3 Zrotation Yrotation Xrotation
						JOINT Neck1
						{
							OFFSET -0.000000 5.101515 -0.000000
							CHANNELS 3 Zrotation Yrotation Xrotation
							JOINT Head
							{
								OFFSET 0.000000 5.101515 -0.000000
								CHANNELS 3 Zrotation Yrotation Xrotation
								JOINT HeadEnd
								{
									OFFSET 0.000000 11.655085 0.000000
									CHANNELS 3 Zrotation Yrotation Xrotation
									End Site
									{
										OFFSET 0.000000 0.000000 0.000000
									}
								}
							}
						}
					}
					JOINT RightShoulder
					{
						OFFSET -2.625389 11.175210 -0.000000
						CHANNELS 3 Zrotation Yrotation Xrotation
						JOINT RightArm
						{
							OFFSET 0.000000 10.434715 -0.000000
							CHANNELS 3 Zrotation Yrotation Xrotation
							JOINT RightForeArm
							{
								OFFSET -0.000000 29.628420 -0.000000
								CHANNELS 3 Zrotation Yrotation Xrotation
								JOINT RightHand
								{
									OFFSET 0.000000 22.857611 0.000000
									CHANNELS 3 Zrotation Yrotation Xrotation
									JOINT RightHandThumb1
									{
										OFFSET -2.867323 3.959563 2.944291
										CHANNELS 3 Zrotation Yrotation Xrotation
										JOINT RightHandThumb2
										{
											OFFSET -0.000000 3.350399 0.000000
											CHANNELS 3 Zrotation Yrotation Xrotation
											JOINT RightHandThumb3
											{
												OFFSET -0.000000 3.756509 -0.000000
												CHANNELS 3 Zrotation Yrotation Xrotation
												JOINT RightHandThumb4
												{
													OFFSET -0.000000 3.147345 -0.000000
													CHANNELS 3 Zrotation Yrotation Xrotation
													End Site
													{
														OFFSET 0.000000 0.000000 0.000000
													}
												}
											}
										}
									}
									JOINT RightHandIndex1
									{
										OFFSET -0.086752 10.030893 2.345280
										CHANNELS 3 Zrotation Yrotation Xrotation
										JOINT RightHandIndex2
										{
											OFFSET -0.000000 4.061090 -0.000000
											CHANNELS 3 Zrotation Yrotation Xrotation
											JOINT RightHandIndex3
											{
												OFFSET 0.000000 3.248873 0.000000
												CHANNELS 3 Zrotation Yrotation Xrotation
												JOINT RightHandIndex4
												{
													OFFSET -0.000000 2.639709 -0.000000
													CHANNELS 3 Zrotation Yrotation Xrotation
													End Site
													{
														OFFSET 0.000000 0.000000 0.000000
													}
												}
											}
										}
									}
									JOINT RightHandMiddle1
									{
										OFFSET 0.104102 9.502952 0.006768
										CHANNELS 3 Zrotation Yrotation Xrotation
										JOINT RightHandMiddle2
										{
											OFFSET -0.000000 4.568727 -0.000000
											CHANNELS 3 Zrotation Yrotation Xrotation
											JOINT RightHandMiddle3
											{
												OFFSET -0.000000 3.654981 0.000000
												CHANNELS 3 Zrotation Yrotation Xrotation
												JOINT RightHandMiddle4
												{
													OFFSET 0.000000 2.741236 0.000000
													CHANNELS 3 Zrotation Yrotation Xrotation
													End Site
													{
														OFFSET 0.000000 0.000000 0.000000
													}
												}
											}
										}
									}
									JOINT RightHandRing1
									{
										OFFSET 0.086752 8.921708 -2.267442
										CHANNELS 3 Zrotation Yrotation Xrotation
										JOINT RightHandRing2
										{
											OFFSET -0.000000 4.061090 -0.000000
											CHANNELS 3 Zrotation Yrotation Xrotation
											JOINT RightHandRing3
											{
												OFFSET -0.000000 3.654981 -0.000000
												CHANNELS 3 Zrotation Yrotation Xrotation
												JOINT RightHandRing4
												{
													OFFSET 0.000000 2.741236 0.000000
													CHANNELS 3 Zrotation Yrotation Xrotation
													End Site
													{
														OFFSET 0.000000 0.000000 0.000000
													}
												}
											}
										}
									}
									JOINT RightHandPinky1
									{
										OFFSET -0.173504 7.976997 -4.467199
										CHANNELS 3 Zrotation Yrotation Xrotation
										JOINT RightHandPinky2
										{
											OFFSET -0.000000 3.350399 -0.000000
											CHANNELS 3 Zrotation Yrotation Xrotation
											JOINT RightHandPinky3
											{
												OFFSET -0.000000 2.842763 -0.000000
												CHANNELS 3 Zrotation Yrotation Xrotation
												JOINT RightHandPinky4
												{
													OFFSET 0.000000 2.639709 0.000000
													CHANNELS 3 Zrotation Yrotation Xrotation
													End Site
													{
														OFFSET 0.000000 0.000000 0.000000
													}
												}
											}
										}
									}
									JOINT RightForeArmEnd
									{
										OFFSET 0.000000 0.000000 0.000000
										CHANNELS 3 Zrotation Yrotation Xrotation
										End Site
										{
											OFFSET 0.000000 0.000000 0.000000
										}
									}
								}
								JOINT RightArmEnd
								{
									OFFSET 0.000000 0.000000 0.000000
									CHANNELS 3 Zrotation Yrotation Xrotation
									End Site
									{
										OFFSET 0.000000 0.000000 0.000000
									}
								}
							}
						}
					}
					JOINT LeftShoulder
					{
						OFFSET 2.625389 11.175210 -0.000000
						CHANNELS 3 Zrotation Yrotation Xrotation
						JOINT LeftArm
						{
							OFFSET 0.000000 10.813635 -0.000000
							CHANNELS 3 Zrotation Yrotation Xrotation
							JOINT LeftForeArm
							{
								OFFSET -0.000000 28.724781 0.000000
								CHANNELS 3 Zrotation Yrotation Xrotation
								JOINT LeftHand
								{
									OFFSET 0.644384 25.716167 -0.328871
									CHANNELS 3 Zrotation Yrotation Xrotation
									JOINT LeftHandThumb1
									{
										OFFSET 2.867323 3.959563 2.944291
										CHANNELS 3 Zrotation Yrotation Xrotation
										JOINT LeftHandThumb2
										{
											OFFSET 0.000000 3.350399 -0.000000
											CHANNELS 3 Zrotation Yrotation Xrotation
											JOINT LeftHandThumb3
											{
												OFFSET -0.000000 3.756509 -0.000000
												CHANNELS 3 Zrotation Yrotation Xrotation
												JOINT LeftHandThumb4
												{
													OFFSET -0.000000 3.100000 0.000000
													CHANNELS 3 Zrotation Yrotation Xrotation
													End Site
													{
														OFFSET 0.000000 0.000000 0.000000
													}
												}
											}
										}
									}
									JOINT LeftHandIndex1
									{
										OFFSET 0.086752 10.030893 2.345280
										CHANNELS 3 Zrotation Yrotation Xrotation
										JOINT LeftHandIndex2
										{
											OFFSET -0.000000 4.061090 0.000000
											CHANNELS 3 Zrotation Yrotation Xrotation
											JOINT LeftHandIndex3
											{
												OFFSET -0.000000 3.248873 0.000000
												CHANNELS 3 Zrotation Yrotation Xrotation
												JOINT LeftHandIndex4
												{
													OFFSET 0.000000 2.639709 -0.000000
													CHANNELS 3 Zrotation Yrotation Xrotation
													End Site
													{
														OFFSET 0.000000 0.000000 0.000000
													}
												}
											}
										}
									}
									JOINT LeftHandMiddle1
									{
										OFFSET -0.104102 9.502952 0.006768
										CHANNELS 3 Zrotation Yrotation Xrotation
										JOINT LeftHandMiddle2
										{
											OFFSET -0.000000 4.568727 0.000000
											CHANNELS 3 Zrotation Yrotation Xrotation
											JOINT LeftHandMiddle3
											{
												OFFSET 0.000000 3.654981 0.000000
												CHANNELS 3 Zrotation Yrotation Xrotation
												JOINT LeftHandMiddle4
												{
													OFFSET 0.000000 2.741236 -0.000000
													CHANNELS 3 Zrotation Yrotation Xrotation
													End Site
													{
														OFFSET 0.000000 0.000000 0.000000
													}
												}
											}
										}
									}
									JOINT LeftHandRing1
									{
										OFFSET -0.086752 8.921708 -2.267442
										CHANNELS 3 Zrotation Yrotation Xrotation
										JOINT LeftHandRing2
										{
											OFFSET -0.000000 4.061090 0.000000
											CHANNELS 3 Zrotation Yrotation Xrotation
											JOINT LeftHandRing3
											{
												OFFSET -0.000000 3.654981 0.000000
												CHANNELS 3 Zrotation Yrotation Xrotation
												JOINT LeftHandRing4
												{
													OFFSET -0.000000 2.741236 0.000000
													CHANNELS 3 Zrotation Yrotation Xrotation
													End Site
													{
														OFFSET 0.000000 0.000000 0.000000
													}
												}
											}
										}
									}
									JOINT LeftHandPinky1
									{
										OFFSET 0.173504 7.976997 -4.467199
										CHANNELS 3 Zrotation Yrotation Xrotation
										JOINT LeftHandPinky2
										{
											OFFSET 0.000000 3.350399 -0.000000
											CHANNELS 3 Zrotation Yrotation Xrotation
											JOINT LeftHandPinky3
											{
												OFFSET -0.000000 2.842763 0.000000
												CHANNELS 3 Zrotation Yrotation Xrotation
												JOINT LeftHandPinky4
												{
													OFFSET -0.000000 2.639709 0.000000
													CHANNELS 3 Zrotation Yrotation Xrotation
													End Site
													{
														OFFSET 0.000000 0.000000 0.000000
													}
												}
											}
										}
									}
									JOINT LeftForeArmEnd
									{
										OFFSET 0.000000 0.000000 0.000000
										CHANNELS 3 Zrotation Yrotation Xrotation
										End Site
										{
											OFFSET 0.000000 0.000000 0.000000
										}
									}
								}
								JOINT LeftArmEnd
								{
									OFFSET 0.000000 0.000000 0.000000
									CHANNELS 3 Zrotation Yrotation Xrotation
									End Site
									{
										OFFSET 0.000000 0.000000 0.000000
									}
								}
							}
						}
					}
				}
			}
		}
	}
	JOINT RightUpLeg
	{
		OFFSET -11.289943 -0.000000 -0.000000
		CHANNELS 3 Zrotation Yrotation Xrotation
		JOINT RightLeg
		{
			OFFSET -0.000000 -38.200325 -0.000000
			CHANNELS 3 Zrotation Yrotation Xrotation
			JOINT RightFoot
			{
				OFFSET -0.000000 -39.900856 -0.000000
				CHANNELS 3 Zrotation Yrotation Xrotation
				JOINT RightToeBase
				{
					OFFSET 0.000000 0.000000 15.261641
					CHANNELS 3 Zrotation Yrotation Xrotation
					JOINT RightToeBaseEnd
					{
						OFFSET 0.000000 0.000000 7.370709
						CHANNELS 3 Zrotation Yrotation Xrotation
						End Site
						{
							OFFSET 0.000000 0.000000 0.000000
						}
					}
				}
				JOINT RightLegEnd
				{
					OFFSET 0.000000 0.000000 0.000000
					CHANNELS 3 Zrotation Yrotation Xrotation
					End Site
					{
						OFFSET 0.000000 0.000000 0.000000
					}
				}
			}
			JOINT RightUpLegEnd
			{
				OFFSET 0.000000 0.000000 0.000000
				CHANNELS 3 Zrotation Yrotation Xrotation
				End Site
				{
					OFFSET 0.000000 0.000000 0.000000
				}
			}
		}
	}
	JOINT LeftUpLeg
	{
		OFFSET 11.315661 0.000000 -0.000000
		CHANNELS 3 Zrotation Yrotation Xrotation
		JOINT LeftLeg
		{
			OFFSET -0.000000 -38.200325 -0.000000
			CHANNELS 3 Zrotation Yrotation Xrotation
			JOINT LeftFoot
			{
				OFFSET -0.000000 -39.900856 0.000000
				CHANNELS 3 Zrotation Yrotation Xrotation
				JOINT LeftToeBase
				{
					OFFSET -0.000000 0.000000 15.261641
					CHANNELS 3 Zrotation Yrotation Xrotation
					JOINT LeftToeBaseEnd
					{
						OFFSET -0.000000 -0.000000 7.539996
						CHANNELS 3 Zrotation Yrotation Xrotation
						End Site
						{
							OFFSET 0.000000 0.000000 0.000000
						}
					}
				}
				JOINT LeftLegEnd
				{
					OFFSET 0.000000 0.000000 0.000000
					CHANNELS 3 Zrotation Yrotation Xrotation
					End Site
					{
						OFFSET 0.000000 0.000000 0.000000
					}
				}
			}
			JOINT LeftUpLegEnd
			{
				OFFSET 0.000000 0.000000 0.000000
				CHANNELS 3 Zrotation Yrotation Xrotation
				End Site
				{
					OFFSET 0.000000 0.000000 0.000000
				}
			}
		}
	}
}
MOTION
Frames: 5
Frame Time: 0.016667
0.000000 86.094200 0.000000 -0.735579 -0.026471 -4.116489 1.651892 -0.120676 2.788357 2.423558 -0.829887 3.553385 -1.868887 -0.231467 4.409896 -1.732635 -0.248273 0.370718 5.259264 1.301523 4.699206 -4.159396 0.623770 -10.824861 -0.415570 3.635005 -24.499111 -0.000000 -0.000000 0.000000 92.509743 -0.224430 4.581046 65.918732 -30.443584 -0.983143 0.805977 19.701914 38.254757 1.786473 8.532803 -14.816400 16.637403 -2.084624 37.370129 0.000000 0.000000 -40.320000 0.000000 -0.000000 -28.000000 -0.000000 -0.000000 -0.000000 43.910858 -0.000000 -9.437276 30.737602 0.000000 0.000000 30.737602 -0.000000 -0.000000 0.000000 0.000000 0.000000 44.860268 0.000000 -9.056111 31.402189 0.000000 -0.000000 31.402189 0.000000 -0.000000 -0.000000 0.000000 -0.000000 49.274651 0.000000 -5.376884 34.492256 -0.000000 0.000000 34.492256 0.000000 -0.000000 -0.000000 0.000000 -0.000000 51.126934 -0.000000 -1.271911 35.788857 -0.000000 -0.000000 35.788857 0.000000 -0.000000 0.000000 0.000000 -0.000000 -0.000000 -0.000000 -0.000000 0.000000 0.000000 0.000000 -90.234253 0.031864 4.239579 -70.189232 26.321512 -12.779326 -1.047115 -8.407260 47.975254 17.575195 -13.561990 -18.344469 -18.137815 2.066985 36.797241 0.000000 0.000000 -43.919998 -0.000000 0.000000 -30.500000 0.000000 0.000000 0.000000 -53.989990 -0.000000 -18.881571 -37.792992 -0.000000 -0.000000 -37.792992 -0.000000 -0.000000 -0.000000 0.000000 -0.000000 -55.532700 0.000000 -15.713614 -38.872890 0.000000 -0.000000 -38.872890 -0.000000 -0.000000 -0.000000 0.000000 -0.000000 -62.636898 0.000000 -7.775413 -43.845829 -0.000000 0.000000 -43.845829 -0.000000 -0.000000 -0.000000 -0.000000 -0.000000 -66.305397 -0.000000 1.277068 -46.413780 -0.000000 -0.000000 -46.413780 0.000000 0.000000 0.000000 0.000000 -0.000000 0.000000 -0.000000 0.000000 0.000000 -0.000000 0.000000 4.959793 4.560685 -2.418325 -0.238899 -0.485850 26.184071 -7.255984 -12.182080 11.049461 0.112558 -1.198749 -30.044563 0.000000 0.000000 0.000000 -0.000000 0.000000 -0.000000 0.000000 -0.000000 0.000000 6.064539 -5.040062 -7.388043 0.393936 0.766912 27.090132 -0.345757 2.075257 11.910602 0.155961 1.036632 -32.436188 0.000000 0.000000 0.000000 0.000000 -0.000000 -0.000000 -0.000000 -0.000000 -0.000000 
-0.275936 85.724350 -0.025061 -0.666268 -0.418155 -4.773157 1.697198 -0.208396 3.203137 2.303736 -0.812348 4.090616 -1.806184 -0.263132 4.539491 -1.722373 -0.255025 0.412430 5.265296 1.072496 4.121861 -4.208403 0.363237 -11.039448 -0.416108 3.633357 -24.664524 -0.000000 -0.000000 0.000000 92.737228 -0.256960 4.865512 64.580841 -29.996035 0.173201 1.305821 19.290783 37.530941 1.427761 9.125725 -14.976310 16.337215 -2.084532 37.487408 0.000000 -0.000000 -39.599998 -0.000000 0.000000 -27.500000 0.000000 -0.000000 -0.000000 42.286362 -0.000000 -9.798168 29.600454 0.000000 0.000000 29.600454 0.000000 0.000000 0.000000 0.000000 0.000000 43.231468 0.000000 -9.507221 30.262028 -0.000000 0.000000 30.262028 -0.000000 -0.000000 -0.000000 0.000000 -0.000000 47.555538 0.000000 -6.016163 33.288876 -0.000000 -0.000000 33.288876 0.000000 0.000000 0.000000 0.000000 0.000000 49.436169 0.000000 -2.248587 34.605320 -0.000000 -0.000000 34.605320 -0.000000 -0.000000 -0.000000 0.000000 -0.000000 -0.000000 -0.000000 0.000000 0.000000 0.000000 -0.000000 -90.242554 0.032384 4.377226 -69.971191 26.213888 -12.480617 -1.144882 -8.176356 47.729534 18.078110 -14.420215 -18.880989 -17.537785 2.077626 37.023659 0.000000 0.000000 -42.480000 -0.000000 0.000000 -29.500000 0.000000 0.000000 0.000000 -52.363461 -0.000000 -18.648979 -36.654423 -0.000000 0.000000 -36.654423 -0.000000 -0.000000 -0.000000 0.000000 0.000000 -53.951313 -0.000000 -15.611164 -37.765919 -0.000000 -0.000000 -37.765919 0.000000 0.000000 0.000000 -0.000000 -0.000000 -61.028481 0.000000 -7.872571 -42.719936 -0.000000 -0.000000 -42.719936 0.000000 -0.000000 0.000000 -0.000000 -0.000000 -64.733887 -0.000000 0.989965 -45.313721 -0.000000 0.000000 -45.313721 -0.000000 -0.000000 0.000000 0.000000 0.000000 0.000000 0.000000 0.000000 0.000000 -0.000000 0.000000 5.309564 5.427561 -2.991692 -0.261368 -0.479891 28.574762 -7.100362 -12.914727 10.044212 0.105217 -1.207026 -29.961720 0.000000 -0.000000 0.000000 -0.000000 0.000000 -0.000000 -0.000000 -0.000000 0.000000 6.144239 -5.233027 -7.788089 0.435280 0.766264 29.305387 -0.757074 2.454406 10.952433 0.192752 1.046649 -32.277981 -0.000000 0.000000 0.000000 -0.000000 0.000000 -0.000000 -0.000000 0.000000 -0.000000 
-0.543507 85.317184 -0.035871 -0.623184 -0.797802 -5.580504 1.778543 -0.258404 3.702359 2.186705 -0.792089 4.663064 -1.738384 -0.277940 4.721199 -1.718397 -0.249809 0.459258 5.293185 0.763467 3.558619 -4.233941 0.069986 -11.259097 -0.387135 3.632109 -24.914135 -0.000000 -0.000000 0.000000 93.152184 -0.305353 5.089340 63.124237 -29.503260 1.264875 1.785233 18.997156 36.982395 1.182901 9.322937 -15.163732 15.736781 -2.080660 37.724583 -0.000000 -0.000000 -38.160000 0.000000 0.000000 -26.500000 0.000000 0.000000 -0.000000 40.132889 0.000000 -10.177804 28.093021 -0.000000 -0.000000 28.093021 -0.000000 0.000000 0.000000 -0.000000 0.000000 41.049965 0.000000 -9.990592 28.734976 0.000000 -0.000000 28.734976 -0.000000 0.000000 -0.000000 0.000000 -0.000000 45.186329 0.000000 -6.680169 31.630430 -0.000000 -0.000000 31.630430 -0.000000 -0.000000 -0.000000 0.000000 -0.000000 47.032787 -0.000000 -3.274799 32.922951 0.000000 -0.000000 32.922951 0.000000 -0.000000 0.000000 0.000000 0.000000 -0.000000 -0.000000 0.000000 0.000000 0.000000 0.000000 -90.228470 0.031551 4.603180 -69.725685 26.419701 -12.040483 -1.287675 -8.202713 47.500393 18.284803 -15.211944 -19.351036 -17.237696 2.081163 37.138245 -0.000000 -0.000000 -41.759998 -0.000000 0.000000 -29.000000 -0.000000 -0.000000 0.000000 -50.494335 0.000000 -18.806202 -35.346035 -0.000000 -0.000000 -35.346035 0.000000 -0.000000 -0.000000 0.000000 0.000000 -52.070805 0.000000 -15.844997 -36.449562 0.000000 -0.000000 -36.449562 -0.000000 -0.000000 0.000000 -0.000000 -0.000000 -58.960068 -0.000000 -8.212193 -41.272045 -0.000000 -0.000000 -41.272045 -0.000000 0.000000 0.000000 -0.000000 -0.000000 -62.564617 0.000000 0.411667 -43.795231 0.000000 0.000000 -43.795231 -0.000000 0.000000 -0.000000 0.000000 0.000000 0.000000 0.000000 0.000000 0.000000 -0.000000 0.000000 5.676124 6.058556 -3.378719 -0.281956 -0.470652 30.925022 -6.965707 -13.451308 9.002163 0.100611 -1.211402 -29.835451 -0.000000 -0.000000 0.000000 0.000000 0.000000 -0.000000 0.000000 -0.000000 -0.000000 6.247516 -5.336587 -8.125392 0.476778 0.763205 31.687925 -1.159433 2.713700 9.980746 0.237481 1.045300 -31.922094 -0.000000 0.000000 0.000000 0.000000 -0.000000 -0.000000 -0.000000 -0.000000 -0.000000 
-0.812925 84.907959 -0.042013 -0.747655 -1.173640 -6.313654 2.014137 -0.292297 4.165487 2.142847 -0.786520 5.037950 -1.718933 -0.255772 5.058124 -1.743885 -0.223102 0.491559 5.428992 0.381334 3.087619 -4.255374 -0.211231 -11.551573 -0.348319 3.630711 -25.073053 -0.000000 -0.000000 -0.000000 93.495583 -0.348097 5.276454 61.968990 -29.422661 2.176932 2.238257 19.505148 36.650589 0.827241 9.291652 -15.310155 15.436551 -2.076864 37.844463 0.000000 0.000000 -37.439999 -0.000000 0.000000 -26.000000 0.000000 -0.000000 -0.000000 38.020836 -0.000000 -10.534095 26.614586 0.000000 -0.000000 26.614586 -0.000000 -0.000000 0.000000 0.000000 0.000000 38.929558 -0.000000 -10.420069 27.250690 -0.000000 -0.000000 27.250690 -0.000000 -0.000000 -0.000000 0.000000 -0.000000 42.921230 0.000000 -7.379443 30.044861 -0.000000 0.000000 30.044861 -0.000000 -0.000000 0.000000 0.000000 0.000000 44.756199 0.000000 -4.528275 31.329338 0.000000 -0.000000 31.329338 0.000000 -0.000000 0.000000 0.000000 0.000000 0.000000 -0.000000 0.000000 0.000000 0.000000 0.000000 -90.218704 0.031021 4.837136 -69.398300 26.770243 -11.462392 -1.439525 -8.313531 47.284531 18.242821 -15.612932 -19.799194 -16.937567 2.083497 37.253738 0.000000 0.000000 -41.040001 -0.000000 -0.000000 -28.500000 0.000000 0.000000 -0.000000 -48.518608 0.000000 -18.883221 -33.963024 -0.000000 -0.000000 -33.963024 0.000000 -0.000000 0.000000 0.000000 -0.000000 -50.169964 -0.000000 -16.093023 -35.118977 -0.000000 0.000000 -35.118977 0.000000 -0.000000 -0.000000 0.000000 -0.000000 -57.119186 0.000000 -8.558677 -39.983433 -0.000000 0.000000 -39.983433 -0.000000 -0.000000 -0.000000 0.000000 0.000000 -60.908295 -0.000000 -0.077266 -42.635807 0.000000 -0.000000 -42.635807 0.000000 -0.000000 -0.000000 0.000000 0.000000 0.000000 -0.000000 0.000000 0.000000 -0.000000 0.000000 6.175137 6.461050 -3.636032 -0.295709 -0.457274 32.890293 -6.910305 -13.783946 8.082552 0.097452 -1.209900 -29.662491 0.000000 0.000000 0.000000 -0.000000 0.000000 -0.000000 0.000000 -0.000000 -0.000000 6.517188 -5.515986 -8.545362 0.519184 0.759838 34.092693 -1.601310 3.027976 9.009228 0.290206 1.041895 -31.486641 -0.000000 0.000000 0.000000 0.000000 -0.000000 -0.000000 -0.000000 0.000000 -0.000000 
-1.064226 84.565826 -0.012208 -0.940370 -1.514967 -6.947382 2.261548 -0.292318 4.494172 2.316034 -0.838221 5.230814 -1.853184 -0.221233 5.537788 -1.840262 -0.193268 0.533364 5.718973 -0.068894 2.756753 -4.275010 -0.463110 -11.725486 -0.323442 3.628357 -25.160151 -0.000000 -0.000000 -0.000000 93.532578 -0.361021 5.420933 61.546162 -28.991581 2.785474 2.533729 19.939348 36.496082 0.411475 9.676366 -15.291763 14.836097 -2.065511 38.086761 0.000000 0.000000 -36.000000 -0.000000 0.000000 -25.000000 0.000000 -0.000000 -0.000000 35.333378 0.000000 -10.955105 24.733364 -0.000000 0.000000 24.733364 -0.000000 0.000000 0.000000 0.000000 0.000000 36.288563 0.000000 -11.079018 25.401995 -0.000000 -0.000000 25.401995 -0.000000 0.000000 -0.000000 0.000000 -0.000000 40.278675 0.000000 -8.382300 28.195074 -0.000000 -0.000000 28.195074 -0.000000 -0.000000 0.000000 0.000000 -0.000000 42.297768 0.000000 -5.980292 29.608437 -0.000000 0.000000 29.608437 0.000000 -0.000000 0.000000 0.000000 0.000000 0.000000 -0.000000 0.000000 0.000000 0.000000 0.000000 -90.203827 0.029561 4.955854 -68.949608 27.450212 -10.700802 -1.670963 -8.632308 47.036583 17.716980 -15.706585 -20.388712 -16.037004 2.083213 37.605560 0.000000 0.000000 -38.880001 -0.000000 0.000000 -27.000000 0.000000 -0.000000 0.000000 -45.509640 -0.000000 -18.489277 -31.856749 -0.000000 -0.000000 -31.856749 0.000000 -0.000000 -0.000000 0.000000 0.000000 -47.356796 -0.000000 -15.948650 -33.149757 -0.000000 -0.000000 -33.149757 0.000000 0.000000 -0.000000 0.000000 -0.000000 -54.562012 -0.000000 -8.633615 -38.193409 0.000000 0.000000 -38.193409 -0.000000 -0.000000 -0.000000 -0.000000 -0.000000 -58.735325 -0.000000 -0.426709 -41.114727 -0.000000 -0.000000 -41.114727 -0.000000 0.000000 0.000000 0.000000 0.000000 0.000000 0.000000 0.000000 0.000000 -0.000000 0.000000 6.672714 6.607619 -3.624493 -0.297153 -0.439293 34.198990 -6.959592 -13.896042 7.329538 0.091241 -1.197706 -29.414152 0.000000 0.000000 0.000000 0.000000 -0.000000 -0.000000 0.000000 -0.000000 -0.000000 6.852956 -5.660530 -8.791190 0.554119 0.758264 36.014595 -2.000919 3.259009 8.186734 0.337280 1.034933 -31.086304 -0.000000 0.000000 0.000000 0.000000 0.000000 -0.000000 -0.000000 -0.000000 -0.000000 
